<svg width="30" height="20" viewBox="0 0 30 20" fill="none" xmlns="http://www.w3.org/2000/svg">
<path d="M30 0.000244141H0V20.0005H30V0.000244141Z" fill="#F0F0F0"/>
<path d="M16.875 0H13.125V8.12496H0V11.875H13.125V19.9999H16.875V11.875H30V8.12496H16.875V0Z" fill="#D80027"/>
<path d="M23.0734 13.4783L30 17.3265V13.4783H23.0734Z" fill="#0052B4"/>
<path d="M18.2609 13.4783L30 20V18.1558L21.5805 13.4783H18.2609Z" fill="#0052B4"/>
<path d="M26.8731 20L18.2609 15.215V20H26.8731Z" fill="#0052B4"/>
<path d="M18.2609 13.4783L30 20V18.1558L21.5805 13.4783H18.2609Z" fill="#F0F0F0"/>
<path d="M18.2609 13.4783L30 20V18.1558L21.5805 13.4783H18.2609Z" fill="#D80027"/>
<path d="M5.29342 13.4781L0 16.419V13.4781H5.29342Z" fill="#0052B4"/>
<path d="M11.7392 14.3075V19.9999H1.49365L11.7392 14.3075Z" fill="#0052B4"/>
<path d="M8.41951 13.4783L0 18.1558V20L11.7391 13.4783H8.41951Z" fill="#D80027"/>
<path d="M6.92666 6.52167L0 2.67346V6.52167H6.92666Z" fill="#0052B4"/>
<path d="M11.7391 6.52172L0 0V1.84418L8.41951 6.52172H11.7391Z" fill="#0052B4"/>
<path d="M3.12695 0L11.7392 4.785V0H3.12695Z" fill="#0052B4"/>
<path d="M11.7391 6.52172L0 0V1.84418L8.41951 6.52172H11.7391Z" fill="#F0F0F0"/>
<path d="M11.7391 6.52172L0 0V1.84418L8.41951 6.52172H11.7391Z" fill="#D80027"/>
<path d="M24.7065 6.52188L30 3.58105V6.52188H24.7065Z" fill="#0052B4"/>
<path d="M18.2609 5.69256V0.00012207H28.5064L18.2609 5.69256Z" fill="#0052B4"/>
<path d="M21.5805 6.52172L30 1.84418V0L18.2609 6.52172H21.5805Z" fill="#D80027"/>
</svg>
