<svg width="46" height="46" viewBox="0 0 46 46" fill="none" xmlns="http://www.w3.org/2000/svg">
<path d="M23 46C35.7025 46 46 35.7025 46 23C46 10.2975 35.7025 0 23 0C10.2975 0 0 10.2975 0 23C0 35.7025 10.2975 46 23 46Z" fill="url(#paint0_linear_726_12965)"/>
<path d="M29.9 20.9948L20.7 15.6128C20.3497 15.4106 19.9522 15.3043 19.5477 15.3047C19.1432 15.3051 18.746 15.4122 18.396 15.6151C18.0461 15.8181 17.7559 16.1097 17.5547 16.4606C17.3535 16.8116 17.2484 17.2093 17.25 17.6138V28.3778C17.2484 28.7824 17.3535 29.1801 17.5547 29.531C17.7559 29.882 18.0461 30.1736 18.396 30.3766C18.746 30.5795 19.1432 30.6866 19.5477 30.687C19.9522 30.6874 20.3497 30.5811 20.7 30.3788L29.9 24.9968C30.254 24.7962 30.5484 24.5053 30.7532 24.1538C30.9581 23.8023 31.066 23.4027 31.066 22.9958C31.066 22.589 30.9581 22.1894 30.7532 21.8379C30.5484 21.4863 30.254 21.1954 29.9 20.9948Z" fill="white"/>
<defs>
<linearGradient id="paint0_linear_726_12965" x1="-3.02632" y1="46" x2="48.3523" y2="44.5368" gradientUnits="userSpaceOnUse">
<stop offset="0.244792" stop-color="#64398E"/>
<stop offset="1" stop-color="#2F49D3"/>
</linearGradient>
</defs>
</svg>
